{
	"patcher" : 	{
		"fileversion" : 1,
		"appversion" : 		{
			"major" : 8,
			"minor" : 3,
			"revision" : 1,
			"architecture" : "x64",
			"modernui" : 1
		}
,
		"classnamespace" : "box",
		"rect" : [ 41.0, 84.0, 1468.0, 713.0 ],
		"bglocked" : 0,
		"openinpresentation" : 1,
		"default_fontsize" : 12.0,
		"default_fontface" : 0,
		"default_fontname" : "Arial",
		"gridonopen" : 1,
		"gridsize" : [ 15.0, 15.0 ],
		"gridsnaponopen" : 1,
		"objectsnaponopen" : 1,
		"statusbarvisible" : 2,
		"toolbarvisible" : 1,
		"lefttoolbarpinned" : 0,
		"toptoolbarpinned" : 0,
		"righttoolbarpinned" : 0,
		"bottomtoolbarpinned" : 0,
		"toolbars_unpinned_last_save" : 0,
		"tallnewobj" : 0,
		"boxanimatetime" : 200,
		"enablehscroll" : 1,
		"enablevscroll" : 1,
		"devicewidth" : 0.0,
		"description" : "",
		"digest" : "",
		"tags" : "",
		"style" : "",
		"subpatcher_template" : "",
		"assistshowspatchername" : 0,
		"boxes" : [ 			{
				"box" : 				{
					"id" : "obj-37",
					"linecount" : 8,
					"maxclass" : "newobj",
					"numinlets" : 0,
					"numoutlets" : 0,
					"patching_rect" : [ 1091.0, 322.0, 362.0, 119.0 ],
					"text" : "patchbayer @inputs 1-proto_granulator-out-1 2-proto_granulator-out-1 1-sample_granulator-out-1 2-sample_granulator-out-1 1-player-out-1 2-player-out-1 1-xsynth-out-1 1-spectral_freeze-out-1 1-microphone-out-1 1-AddSynth-out-1 1-AddSynth-out-2 1-ritmi-out-1 1-ritmi-out-2 @outputs 1-spectral_freeze-in-1 1-xsynth-in-1 1-xsynth-in-2 master-out-1 master-out-2 master-out-3 master-out-4 master-out-5 master-out-6 master-out-7 master-out-8 octopanning-out"
				}

			}
, 			{
				"box" : 				{
					"id" : "obj-53",
					"maxclass" : "newobj",
					"numinlets" : 1,
					"numoutlets" : 0,
					"patching_rect" : [ 1004.0, 790.0, 113.0, 22.0 ],
					"text" : "send~ master-out-2"
				}

			}
, 			{
				"box" : 				{
					"id" : "obj-54",
					"maxclass" : "newobj",
					"numinlets" : 1,
					"numoutlets" : 0,
					"patching_rect" : [ 885.125, 761.59997599999997, 113.0, 22.0 ],
					"text" : "send~ master-out-1"
				}

			}
, 			{
				"box" : 				{
					"id" : "obj-51",
					"maxclass" : "newobj",
					"numinlets" : 1,
					"numoutlets" : 0,
					"patching_rect" : [ 763.0, 790.0, 113.0, 22.0 ],
					"text" : "send~ master-out-2"
				}

			}
, 			{
				"box" : 				{
					"id" : "obj-52",
					"maxclass" : "newobj",
					"numinlets" : 1,
					"numoutlets" : 0,
					"patching_rect" : [ 648.000000000000114, 821.0, 113.0, 22.0 ],
					"text" : "send~ master-out-1"
				}

			}
, 			{
				"box" : 				{
					"id" : "obj-43",
					"maxclass" : "newobj",
					"numinlets" : 1,
					"numoutlets" : 1,
					"outlettype" : [ "signal" ],
					"patching_rect" : [ 924.75, 607.200012000000015, 129.0, 22.0 ],
					"text" : "receive~ #1-ritmi-out-1"
				}

			}
, 			{
				"box" : 				{
					"id" : "obj-42",
					"maxclass" : "newobj",
					"numinlets" : 1,
					"numoutlets" : 1,
					"outlettype" : [ "signal" ],
					"patching_rect" : [ 1004.0, 635.799987999999985, 129.0, 22.0 ],
					"text" : "receive~ #1-ritmi-out-2"
				}

			}
, 			{
				"box" : 				{
					"id" : "obj-40",
					"maxclass" : "newobj",
					"numinlets" : 1,
					"numoutlets" : 1,
					"outlettype" : [ "signal" ],
					"patching_rect" : [ 845.5, 578.200012000000015, 152.0, 22.0 ],
					"text" : "receive~ 1-AddSynth-out-2"
				}

			}
, 			{
				"box" : 				{
					"id" : "obj-38",
					"maxclass" : "newobj",
					"numinlets" : 1,
					"numoutlets" : 1,
					"outlettype" : [ "signal" ],
					"patching_rect" : [ 766.25, 607.200012000000015, 152.0, 22.0 ],
					"text" : "receive~ 1-AddSynth-out-1"
				}

			}
, 			{
				"box" : 				{
					"id" : "obj-36",
					"maxclass" : "newobj",
					"numinlets" : 1,
					"numoutlets" : 0,
					"patching_rect" : [ 290.75, 769.0, 114.0, 22.0 ],
					"text" : "send~ 1-xsynth-in-2"
				}

			}
, 			{
				"box" : 				{
					"id" : "obj-35",
					"maxclass" : "newobj",
					"numinlets" : 1,
					"numoutlets" : 1,
					"outlettype" : [ "signal" ],
					"patching_rect" : [ 687.0, 635.799987999999985, 162.0, 22.0 ],
					"text" : "receive~ 1-microphone-out-1"
				}

			}
, 			{
				"box" : 				{
					"id" : "obj-34",
					"maxclass" : "newobj",
					"numinlets" : 1,
					"numoutlets" : 1,
					"outlettype" : [ "signal" ],
					"patching_rect" : [ 607.75, 661.200012000000015, 182.0, 22.0 ],
					"text" : "receive~ 1-spectral_freeze-out-1"
				}

			}
, 			{
				"box" : 				{
					"id" : "obj-32",
					"maxclass" : "newobj",
					"numinlets" : 1,
					"numoutlets" : 1,
					"outlettype" : [ "signal" ],
					"patching_rect" : [ 528.5, 691.200012000000015, 134.0, 22.0 ],
					"text" : "receive~ 1-xsynth-out-1"
				}

			}
, 			{
				"box" : 				{
					"id" : "obj-28",
					"maxclass" : "newobj",
					"numinlets" : 1,
					"numoutlets" : 1,
					"outlettype" : [ "signal" ],
					"patching_rect" : [ 449.25, 563.200012000000015, 132.0, 22.0 ],
					"text" : "receive~ 2-player-out-1"
				}

			}
, 			{
				"box" : 				{
					"id" : "obj-27",
					"maxclass" : "newobj",
					"numinlets" : 1,
					"numoutlets" : 1,
					"outlettype" : [ "signal" ],
					"patching_rect" : [ 370.0, 593.800018000000023, 132.0, 22.0 ],
					"text" : "receive~ 1-player-out-1"
				}

			}
, 			{
				"box" : 				{
					"id" : "obj-25",
					"maxclass" : "newobj",
					"numinlets" : 1,
					"numoutlets" : 1,
					"outlettype" : [ "signal" ],
					"patching_rect" : [ 290.75, 632.200012000000015, 199.0, 22.0 ],
					"text" : "receive~ 2-sample_granulator-out-1"
				}

			}
, 			{
				"box" : 				{
					"id" : "obj-26",
					"maxclass" : "newobj",
					"numinlets" : 1,
					"numoutlets" : 1,
					"outlettype" : [ "signal" ],
					"patching_rect" : [ 211.5, 661.200012000000015, 199.0, 22.0 ],
					"text" : "receive~ 1-sample_granulator-out-1"
				}

			}
, 			{
				"box" : 				{
					"id" : "obj-23",
					"maxclass" : "newobj",
					"numinlets" : 1,
					"numoutlets" : 1,
					"outlettype" : [ "signal" ],
					"patching_rect" : [ 132.25, 687.200012000000015, 188.0, 22.0 ],
					"text" : "receive~ 2-proto_granulator-out-1"
				}

			}
, 			{
				"box" : 				{
					"fontface" : 1,
					"fontsize" : 14.0,
					"id" : "obj-22",
					"maxclass" : "textbutton",
					"numinlets" : 1,
					"numoutlets" : 3,
					"outlettype" : [ "", "", "int" ],
					"parameter_enable" : 0,
					"patching_rect" : [ 882.0, 448.733367999999928, 100.0, 20.0 ],
					"presentation" : 1,
					"presentation_rect" : [ 336.066650000000095, 459.733367999999984, 160.93334999999999, 20.0 ],
					"text" : "clear all"
				}

			}
, 			{
				"box" : 				{
					"fontface" : 3,
					"id" : "obj-21",
					"maxclass" : "comment",
					"numinlets" : 1,
					"numoutlets" : 0,
					"patching_rect" : [ 678.0, 269.066703999999959, 150.0, 20.0 ],
					"presentation" : 1,
					"presentation_rect" : [ 507.199996999999939, 207.066691999999961, 68.0, 20.0 ],
					"text" : "XSYN2"
				}

			}
, 			{
				"box" : 				{
					"id" : "obj-20",
					"maxclass" : "newobj",
					"numinlets" : 0,
					"numoutlets" : 1,
					"outlettype" : [ "" ],
					"patching_rect" : [ 882.0, 401.800018000000023, 107.0, 22.0 ],
					"text" : "r patchbay-clearall"
				}

			}
, 			{
				"box" : 				{
					"id" : "obj-19",
					"maxclass" : "message",
					"numinlets" : 2,
					"numoutlets" : 1,
					"outlettype" : [ "" ],
					"patching_rect" : [ 870.0, 489.466681999999992, 47.0, 22.0 ],
					"text" : "clearall"
				}

			}
, 			{
				"box" : 				{
					"fontface" : 3,
					"id" : "obj-18",
					"maxclass" : "comment",
					"numinlets" : 1,
					"numoutlets" : 0,
					"patching_rect" : [ 550.0, 12.666664000000001, 41.0, 20.0 ],
					"presentation" : 1,
					"presentation_rect" : [ 456.0, 12.666664000000001, 41.0, 20.0 ],
					"text" : "ADC1"
				}

			}
, 			{
				"box" : 				{
					"fontface" : 3,
					"id" : "obj-17",
					"maxclass" : "comment",
					"numinlets" : 1,
					"numoutlets" : 0,
					"patching_rect" : [ 489.0, 12.666664000000001, 38.0, 20.0 ],
					"presentation" : 1,
					"presentation_rect" : [ 397.533325000000104, 12.666664000000001, 38.0, 20.0 ],
					"text" : "FRZ1"
				}

			}
, 			{
				"box" : 				{
					"fontface" : 3,
					"id" : "obj-16",
					"maxclass" : "comment",
					"numinlets" : 1,
					"numoutlets" : 0,
					"patching_rect" : [ 352.500000000000057, 12.666664000000001, 58.0, 20.0 ],
					"presentation" : 1,
					"presentation_rect" : [ 296.399976999999978, 12.666664000000001, 46.0, 20.0 ],
					"text" : "PLAY2"
				}

			}
, 			{
				"box" : 				{
					"fontface" : 3,
					"id" : "obj-12",
					"maxclass" : "comment",
					"numinlets" : 1,
					"numoutlets" : 0,
					"patching_rect" : [ 290.75, 12.666664000000001, 46.0, 20.0 ],
					"presentation" : 1,
					"presentation_rect" : [ 245.399976999999978, 12.666664000000001, 46.0, 20.0 ],
					"text" : "PLAY1"
				}

			}
, 			{
				"box" : 				{
					"fontface" : 3,
					"id" : "obj-11",
					"maxclass" : "comment",
					"numinlets" : 1,
					"numoutlets" : 0,
					"patching_rect" : [ 225.866652999999985, 12.666664000000001, 58.0, 20.0 ],
					"presentation" : 1,
					"presentation_rect" : [ 193.399976999999978, 12.666664000000001, 50.0, 20.0 ],
					"text" : "SAMP2"
				}

			}
, 			{
				"box" : 				{
					"fontface" : 3,
					"id" : "obj-6",
					"maxclass" : "comment",
					"numinlets" : 1,
					"numoutlets" : 0,
					"patching_rect" : [ 160.866652999999985, 12.666664000000001, 58.0, 20.0 ],
					"presentation" : 1,
					"presentation_rect" : [ 138.26664199999999, 12.666664000000001, 50.0, 20.0 ],
					"text" : "SAMP1"
				}

			}
, 			{
				"box" : 				{
					"fontface" : 3,
					"id" : "obj-15",
					"maxclass" : "comment",
					"numinlets" : 1,
					"numoutlets" : 0,
					"patching_rect" : [ 92.200012000000015, 12.666664000000001, 58.0, 20.0 ],
					"presentation" : 1,
					"presentation_rect" : [ 78.26664199999999, 12.666664000000001, 58.0, 20.0 ],
					"text" : "PROTO2"
				}

			}
, 			{
				"box" : 				{
					"fontface" : 3,
					"id" : "obj-13",
					"maxclass" : "comment",
					"numinlets" : 1,
					"numoutlets" : 0,
					"patching_rect" : [ 20.866652999999999, 12.666664000000001, 58.0, 20.0 ],
					"presentation" : 1,
					"presentation_rect" : [ 18.266642000000001, 12.666664000000001, 58.0, 20.0 ],
					"text" : "PROTO1"
				}

			}
, 			{
				"box" : 				{
					"fontface" : 3,
					"id" : "obj-14",
					"maxclass" : "comment",
					"numinlets" : 1,
					"numoutlets" : 0,
					"patching_rect" : [ 422.866652999999985, 12.666664000000001, 48.0, 20.0 ],
					"presentation" : 1,
					"presentation_rect" : [ 346.399977000000035, 12.666664000000001, 48.0, 20.0 ],
					"text" : "XSYN1"
				}

			}
, 			{
				"box" : 				{
					"fontface" : 3,
					"id" : "obj-10",
					"maxclass" : "comment",
					"numinlets" : 1,
					"numoutlets" : 0,
					"patching_rect" : [ 678.0, 448.733367999999928, 150.0, 20.0 ],
					"presentation" : 1,
					"presentation_rect" : [ 507.199996999999939, 348.0, 68.0, 20.0 ],
					"text" : "MAIN 2"
				}

			}
, 			{
				"box" : 				{
					"fontface" : 3,
					"id" : "obj-9",
					"maxclass" : "comment",
					"numinlets" : 1,
					"numoutlets" : 0,
					"patching_rect" : [ 678.0, 353.733367999999928, 150.0, 20.0 ],
					"presentation" : 1,
					"presentation_rect" : [ 507.199996999999939, 272.666663999999969, 68.0, 20.0 ],
					"text" : "MAIN 1"
				}

			}
, 			{
				"box" : 				{
					"fontface" : 3,
					"id" : "obj-8",
					"maxclass" : "comment",
					"numinlets" : 1,
					"numoutlets" : 0,
					"patching_rect" : [ 678.0, 173.400031999999925, 150.0, 20.0 ],
					"presentation" : 1,
					"presentation_rect" : [ 507.199996999999939, 131.333336000000003, 68.0, 20.0 ],
					"text" : "XSYN1"
				}

			}
, 			{
				"box" : 				{
					"fontface" : 3,
					"id" : "obj-7",
					"maxclass" : "comment",
					"numinlets" : 1,
					"numoutlets" : 0,
					"patching_rect" : [ 678.0, 76.533385999999922, 150.0, 20.0 ],
					"presentation" : 1,
					"presentation_rect" : [ 507.199996999999939, 67.333331999999984, 68.0, 20.0 ],
					"text" : "FREEZE 1"
				}

			}
, 			{
				"box" : 				{
					"id" : "obj-5",
					"maxclass" : "newobj",
					"numinlets" : 1,
					"numoutlets" : 0,
					"patching_rect" : [ 528.5, 769.0, 113.0, 22.0 ],
					"text" : "send~ master-out-2"
				}

			}
, 			{
				"box" : 				{
					"id" : "obj-4",
					"maxclass" : "newobj",
					"numinlets" : 1,
					"numoutlets" : 0,
					"patching_rect" : [ 409.625, 807.59997599999997, 113.0, 22.0 ],
					"text" : "send~ master-out-1"
				}

			}
, 			{
				"box" : 				{
					"id" : "obj-3",
					"maxclass" : "newobj",
					"numinlets" : 0,
					"numoutlets" : 1,
					"outlettype" : [ "" ],
					"patching_rect" : [ 840.0, 62.800017999999994, 95.0, 22.0 ],
					"text" : "r patchbay-reset"
				}

			}
, 			{
				"box" : 				{
					"id" : "obj-2",
					"maxclass" : "newobj",
					"numinlets" : 0,
					"numoutlets" : 1,
					"outlettype" : [ "" ],
					"patching_rect" : [ 296.0, 524.40002400000003, 101.0, 22.0 ],
					"text" : "r patchbay-scene"
				}

			}
, 			{
				"box" : 				{
					"fontface" : 1,
					"fontsize" : 14.0,
					"id" : "obj-1",
					"maxclass" : "textbutton",
					"numinlets" : 1,
					"numoutlets" : 3,
					"outlettype" : [ "", "", "int" ],
					"parameter_enable" : 0,
					"patching_rect" : [ 827.0, 118.0, 100.0, 20.0 ],
					"presentation" : 1,
					"presentation_rect" : [ 18.266641999999997, 459.733367999999984, 160.93334999999999, 20.0 ],
					"text" : "reset"
				}

			}
, 			{
				"box" : 				{
					"bubblesize" : 16,
					"id" : "obj-45",
					"maxclass" : "preset",
					"numinlets" : 1,
					"numoutlets" : 5,
					"outlettype" : [ "preset", "int", "preset", "int", "" ],
					"patching_rect" : [ 15.599976, 536.799987999999985, 247.600020999999998, 55.0 ],
					"presentation" : 1,
					"presentation_rect" : [ 18.266641999999997, 399.733352999999966, 478.73335800000001, 55.0 ],
					"preset_data" : [ 						{
							"number" : 1,
							"data" : [ 139, "obj-24", "matrixctrl", "list", 0, 0, 0, 0, 1, 0, 0, 2, 0, 0, 3, 1, 0, 4, 0, 1, 0, 0, 1, 1, 0, 1, 2, 0, 1, 3, 0, 1, 4, 1, 2, 0, 0, 2, 1, 1, 2, 2, 0, 2, 3, 0, 2, 4, 0, 3, 0, 0, 3, 1, 0, 3, 2, 1, 3, 3, 0, 3, 4, 0, 4, 0, 0, 4, 1, 0, 4, 2, 0, 4, 3, 0, 4, 4, 0, 5, 0, 0, 5, 1, 0, 5, 2, 0, 5, 3, 0, 5, 4, 0, 6, 0, 0, 6, 1, 0, 6, 2, 0, 6, 3, 0, 6, 4, 1, 7, 0, 0, 7, 1, 0, 7, 2, 0, 7, 3, 0, 7, 4, 0, 8, 0, 0, 8, 1, 0, 8, 2, 0, 8, 3, 0, 8, 4, 0 ]
						}
, 						{
							"number" : 2,
							"data" : [ 139, "obj-24", "matrixctrl", "list", 0, 0, 0, 0, 1, 0, 0, 2, 0, 0, 3, 1, 0, 4, 0, 1, 0, 0, 1, 1, 0, 1, 2, 0, 1, 3, 0, 1, 4, 1, 2, 0, 0, 2, 1, 1, 2, 2, 0, 2, 3, 0, 2, 4, 0, 3, 0, 0, 3, 1, 0, 3, 2, 1, 3, 3, 0, 3, 4, 0, 4, 0, 1, 4, 1, 0, 4, 2, 0, 4, 3, 1, 4, 4, 0, 5, 0, 0, 5, 1, 0, 5, 2, 0, 5, 3, 0, 5, 4, 0, 6, 0, 0, 6, 1, 0, 6, 2, 0, 6, 3, 0, 6, 4, 1, 7, 0, 0, 7, 1, 0, 7, 2, 0, 7, 3, 1, 7, 4, 0, 8, 0, 0, 8, 1, 0, 8, 2, 0, 8, 3, 0, 8, 4, 0 ]
						}
 ]
				}

			}
, 			{
				"box" : 				{
					"id" : "obj-39",
					"maxclass" : "message",
					"numinlets" : 2,
					"numoutlets" : 1,
					"outlettype" : [ "" ],
					"patching_rect" : [ 836.0, 155.466681999999992, 37.0, 22.0 ],
					"text" : "clear"
				}

			}
, 			{
				"box" : 				{
					"id" : "obj-33",
					"maxclass" : "newobj",
					"numinlets" : 1,
					"numoutlets" : 0,
					"patching_rect" : [ 171.875, 803.59997599999997, 114.0, 22.0 ],
					"text" : "send~ 1-xsynth-in-1"
				}

			}
, 			{
				"box" : 				{
					"id" : "obj-31",
					"maxclass" : "newobj",
					"numinlets" : 1,
					"numoutlets" : 0,
					"patching_rect" : [ 53.0, 769.0, 162.0, 22.0 ],
					"text" : "send~ 1-spectral_freeze-in-1"
				}

			}
, 			{
				"box" : 				{
					"id" : "obj-30",
					"maxclass" : "newobj",
					"numinlets" : 1,
					"numoutlets" : 1,
					"outlettype" : [ "signal" ],
					"patching_rect" : [ 49.200011999999987, 607.200012000000015, 188.0, 22.0 ],
					"text" : "receive~ 1-proto_granulator-out-1"
				}

			}
, 			{
				"box" : 				{
					"id" : "obj-29",
					"maxclass" : "newobj",
					"numinlets" : 13,
					"numoutlets" : 9,
					"outlettype" : [ "signal", "signal", "signal", "signal", "signal", "signal", "signal", "signal", "" ],
					"patching_rect" : [ 53.0, 725.0, 970.0, 22.0 ],
					"text" : "matrix~ 13 8"
				}

			}
, 			{
				"box" : 				{
					"columns" : 9,
					"id" : "obj-24",
					"maxclass" : "matrixctrl",
					"numinlets" : 1,
					"numoutlets" : 2,
					"outlettype" : [ "list", "list" ],
					"parameter_enable" : 0,
					"patching_rect" : [ 11.599976, 39.400024000000002, 592.60002099999997, 457.066657999999961 ],
					"presentation" : 1,
					"presentation_rect" : [ 18.266642000000001, 38.733356000000001, 478.73335800000001, 356.666672000000005 ],
					"rows" : 5
				}

			}
 ],
		"lines" : [ 			{
				"patchline" : 				{
					"destination" : [ "obj-39", 0 ],
					"source" : [ "obj-1", 0 ]
				}

			}
, 			{
				"patchline" : 				{
					"destination" : [ "obj-45", 0 ],
					"source" : [ "obj-19", 0 ]
				}

			}
, 			{
				"patchline" : 				{
					"destination" : [ "obj-45", 0 ],
					"source" : [ "obj-2", 0 ]
				}

			}
, 			{
				"patchline" : 				{
					"destination" : [ "obj-22", 0 ],
					"source" : [ "obj-20", 0 ]
				}

			}
, 			{
				"patchline" : 				{
					"destination" : [ "obj-19", 0 ],
					"source" : [ "obj-22", 0 ]
				}

			}
, 			{
				"patchline" : 				{
					"destination" : [ "obj-29", 1 ],
					"source" : [ "obj-23", 0 ]
				}

			}
, 			{
				"patchline" : 				{
					"destination" : [ "obj-29", 0 ],
					"source" : [ "obj-24", 0 ]
				}

			}
, 			{
				"patchline" : 				{
					"destination" : [ "obj-29", 3 ],
					"source" : [ "obj-25", 0 ]
				}

			}
, 			{
				"patchline" : 				{
					"destination" : [ "obj-29", 2 ],
					"source" : [ "obj-26", 0 ]
				}

			}
, 			{
				"patchline" : 				{
					"destination" : [ "obj-29", 4 ],
					"source" : [ "obj-27", 0 ]
				}

			}
, 			{
				"patchline" : 				{
					"destination" : [ "obj-29", 5 ],
					"source" : [ "obj-28", 0 ]
				}

			}
, 			{
				"patchline" : 				{
					"destination" : [ "obj-31", 0 ],
					"source" : [ "obj-29", 0 ]
				}

			}
, 			{
				"patchline" : 				{
					"destination" : [ "obj-33", 0 ],
					"source" : [ "obj-29", 1 ]
				}

			}
, 			{
				"patchline" : 				{
					"destination" : [ "obj-36", 0 ],
					"source" : [ "obj-29", 2 ]
				}

			}
, 			{
				"patchline" : 				{
					"destination" : [ "obj-4", 0 ],
					"source" : [ "obj-29", 3 ]
				}

			}
, 			{
				"patchline" : 				{
					"destination" : [ "obj-5", 0 ],
					"source" : [ "obj-29", 4 ]
				}

			}
, 			{
				"patchline" : 				{
					"destination" : [ "obj-51", 0 ],
					"source" : [ "obj-29", 6 ]
				}

			}
, 			{
				"patchline" : 				{
					"destination" : [ "obj-52", 0 ],
					"source" : [ "obj-29", 5 ]
				}

			}
, 			{
				"patchline" : 				{
					"destination" : [ "obj-53", 0 ],
					"source" : [ "obj-29", 8 ]
				}

			}
, 			{
				"patchline" : 				{
					"destination" : [ "obj-54", 0 ],
					"source" : [ "obj-29", 7 ]
				}

			}
, 			{
				"patchline" : 				{
					"destination" : [ "obj-1", 0 ],
					"source" : [ "obj-3", 0 ]
				}

			}
, 			{
				"patchline" : 				{
					"destination" : [ "obj-29", 0 ],
					"source" : [ "obj-30", 0 ]
				}

			}
, 			{
				"patchline" : 				{
					"destination" : [ "obj-29", 6 ],
					"source" : [ "obj-32", 0 ]
				}

			}
, 			{
				"patchline" : 				{
					"destination" : [ "obj-29", 7 ],
					"source" : [ "obj-34", 0 ]
				}

			}
, 			{
				"patchline" : 				{
					"destination" : [ "obj-29", 8 ],
					"source" : [ "obj-35", 0 ]
				}

			}
, 			{
				"patchline" : 				{
					"destination" : [ "obj-29", 9 ],
					"source" : [ "obj-38", 0 ]
				}

			}
, 			{
				"patchline" : 				{
					"destination" : [ "obj-24", 0 ],
					"source" : [ "obj-39", 0 ]
				}

			}
, 			{
				"patchline" : 				{
					"destination" : [ "obj-29", 10 ],
					"source" : [ "obj-40", 0 ]
				}

			}
, 			{
				"patchline" : 				{
					"destination" : [ "obj-29", 12 ],
					"source" : [ "obj-42", 0 ]
				}

			}
, 			{
				"patchline" : 				{
					"destination" : [ "obj-29", 11 ],
					"source" : [ "obj-43", 0 ]
				}

			}
 ],
		"dependency_cache" : [ 			{
				"name" : "patchbayer.maxpat",
				"bootpath" : "~/Concerto_Fossombrone_2023/concert_patch",
				"patcherrelativepath" : ".",
				"type" : "JSON",
				"implicit" : 1
			}
 ],
		"autosave" : 0,
		"bgcolor" : [ 0.466667, 0.254902, 0.607843, 1.0 ]
	}

}
